<svg id="Layer_1" data-name="Layer 1" xmlns="http://www.w3.org/2000/svg" viewBox="0 0 220.16 253.12"><defs><style>.cls-1,.cls-2{fill:#2e7795;}.cls-1{opacity:0.3;}.cls-3{fill:#166065;}</style></defs><polygon class="cls-1" points="34.18 33 27.58 33 27.58 165 159.58 165 159.58 158.4 34.18 158.4 34.18 33"/><rect class="cls-1" x="159.58" y="151.8" width="6.6" height="6.6"/><rect class="cls-1" x="34.18" y="26.4" width="6.6" height="6.6"/><polygon class="cls-1" points="40.78 151.8 40.78 33 34.18 33 34.18 158.4 159.58 158.4 159.58 151.8 40.78 151.8"/><polygon class="cls-1" points="40.78 151.8 40.78 33 34.18 33 34.18 158.4 159.58 158.4 159.58 151.8 40.78 151.8"/><rect class="cls-1" x="40.78" y="19.8" width="6.6" height="6.6"/><rect class="cls-1" x="166.18" y="145.2" width="6.6" height="6.6"/><rect class="cls-1" x="40.78" y="26.4" width="6.6" height="6.6"/><rect class="cls-1" x="40.78" y="26.4" width="6.6" height="6.6"/><rect class="cls-1" x="159.58" y="145.2" width="6.6" height="6.6"/><rect class="cls-1" x="159.58" y="145.2" width="6.6" height="6.6"/><polygon class="cls-1" points="47.38 33 40.78 33 40.78 151.8 159.58 151.8 159.58 145.2 47.38 145.2 47.38 33"/><polygon class="cls-1" points="47.38 33 40.78 33 40.78 151.8 159.58 151.8 159.58 145.2 47.38 145.2 47.38 33"/><polygon class="cls-1" points="47.38 33 40.78 33 40.78 151.8 159.58 151.8 159.58 145.2 47.38 145.2 47.38 33"/><rect class="cls-1" x="47.38" y="13.2" width="6.6" height="6.6"/><rect class="cls-1" x="172.78" y="138.6" width="6.6" height="6.6"/><rect class="cls-1" x="47.38" y="19.8" width="6.6" height="6.6"/><rect class="cls-1" x="47.38" y="19.8" width="6.6" height="6.6"/><rect class="cls-1" x="166.18" y="138.6" width="6.6" height="6.6"/><rect class="cls-1" x="166.18" y="138.6" width="6.6" height="6.6"/><rect class="cls-1" x="159.58" y="138.6" width="6.6" height="6.6"/><rect class="cls-1" x="159.58" y="138.6" width="6.6" height="6.6"/><rect class="cls-1" x="159.58" y="138.6" width="6.6" height="6.6"/><rect class="cls-1" x="47.38" y="26.4" width="6.6" height="6.6"/><rect class="cls-1" x="47.38" y="26.4" width="6.6" height="6.6"/><rect class="cls-1" x="47.38" y="26.4" width="6.6" height="6.6"/><polygon class="cls-1" points="53.98 138.6 53.98 33 47.38 33 47.38 145.2 159.58 145.2 159.58 138.6 53.98 138.6"/><polygon class="cls-1" points="53.98 138.6 53.98 33 47.38 33 47.38 145.2 159.58 145.2 159.58 138.6 53.98 138.6"/><polygon class="cls-1" points="53.98 138.6 53.98 33 47.38 33 47.38 145.2 159.58 145.2 159.58 138.6 53.98 138.6"/><polygon class="cls-1" points="53.98 138.6 53.98 33 47.38 33 47.38 145.2 159.58 145.2 159.58 138.6 53.98 138.6"/><rect class="cls-1" x="53.98" y="6.6" width="6.6" height="6.6"/><rect class="cls-1" x="179.38" y="132" width="6.6" height="6.6"/><rect class="cls-1" x="172.78" y="132" width="6.6" height="6.6"/><rect class="cls-1" x="172.78" y="132" width="6.6" height="6.6"/><rect class="cls-1" x="53.98" y="13.2" width="6.6" height="6.6"/><rect class="cls-1" x="53.98" y="13.2" width="6.6" height="6.6"/><rect class="cls-1" x="53.98" y="19.8" width="6.6" height="6.6"/><rect class="cls-1" x="53.98" y="19.8" width="6.6" height="6.6"/><rect class="cls-1" x="53.98" y="19.8" width="6.6" height="6.6"/><rect class="cls-1" x="166.18" y="132" width="6.6" height="6.6"/><rect class="cls-1" x="166.18" y="132" width="6.6" height="6.6"/><rect class="cls-1" x="166.18" y="132" width="6.6" height="6.6"/><rect class="cls-1" x="159.58" y="132" width="6.6" height="6.6"/><rect class="cls-1" x="159.58" y="132" width="6.6" height="6.6"/><rect class="cls-1" x="159.58" y="132" width="6.6" height="6.6"/><rect class="cls-1" x="159.58" y="132" width="6.6" height="6.6"/><rect class="cls-1" x="53.98" y="26.4" width="6.6" height="6.6"/><rect class="cls-1" x="53.98" y="26.4" width="6.6" height="6.6"/><rect class="cls-1" x="53.98" y="26.4" width="6.6" height="6.6"/><rect class="cls-1" x="53.98" y="26.4" width="6.6" height="6.6"/><polygon class="cls-1" points="60.58 33 53.98 33 53.98 138.6 159.58 138.6 159.58 132 60.58 132 60.58 33"/><polygon class="cls-1" points="60.58 33 53.98 33 53.98 138.6 159.58 138.6 159.58 132 60.58 132 60.58 33"/><polygon class="cls-1" points="60.58 33 53.98 33 53.98 138.6 159.58 138.6 159.58 132 60.58 132 60.58 33"/><polygon class="cls-1" points="60.58 33 53.98 33 53.98 138.6 159.58 138.6 159.58 132 60.58 132 60.58 33"/><polygon class="cls-1" points="60.58 33 53.98 33 53.98 138.6 159.58 138.6 159.58 132 60.58 132 60.58 33"/><polygon class="cls-1" points="60.58 0 60.58 6.6 185.98 6.6 185.98 132 192.58 132 192.58 0 60.58 0"/><polygon class="cls-1" points="60.58 6.6 60.58 13.2 179.38 13.2 179.38 132 185.98 132 185.98 6.6 60.58 6.6"/><polygon class="cls-1" points="60.58 6.6 60.58 13.2 179.38 13.2 179.38 132 185.98 132 185.98 6.6 60.58 6.6"/><polygon class="cls-1" points="172.78 19.8 172.78 132 179.38 132 179.38 13.2 60.58 13.2 60.58 19.8 172.78 19.8"/><polygon class="cls-1" points="172.78 19.8 172.78 132 179.38 132 179.38 13.2 60.58 13.2 60.58 19.8 172.78 19.8"/><polygon class="cls-1" points="172.78 19.8 172.78 132 179.38 132 179.38 13.2 60.58 13.2 60.58 19.8 172.78 19.8"/><polygon class="cls-1" points="60.58 19.8 60.58 26.4 166.18 26.4 166.18 132 172.78 132 172.78 19.8 60.58 19.8"/><polygon class="cls-1" points="60.58 19.8 60.58 26.4 166.18 26.4 166.18 132 172.78 132 172.78 19.8 60.58 19.8"/><polygon class="cls-1" points="60.58 19.8 60.58 26.4 166.18 26.4 166.18 132 172.78 132 172.78 19.8 60.58 19.8"/><polygon class="cls-1" points="60.58 19.8 60.58 26.4 166.18 26.4 166.18 132 172.78 132 172.78 19.8 60.58 19.8"/><polygon class="cls-1" points="159.58 33 159.58 132 166.18 132 166.18 26.4 60.58 26.4 60.58 33 159.58 33"/><polygon class="cls-1" points="159.58 33 159.58 132 166.18 132 166.18 26.4 60.58 26.4 60.58 33 159.58 33"/><polygon class="cls-1" points="159.58 33 159.58 132 166.18 132 166.18 26.4 60.58 26.4 60.58 33 159.58 33"/><polygon class="cls-1" points="159.58 33 159.58 132 166.18 132 166.18 26.4 60.58 26.4 60.58 33 159.58 33"/><polygon class="cls-1" points="159.58 33 159.58 132 166.18 132 166.18 26.4 60.58 26.4 60.58 33 159.58 33"/><rect class="cls-2" x="60.58" y="33" width="99" height="99"/><path class="cls-2" d="M90.17,236.44v25H78.46v-3.88a25.16,25.16,0,0,1-6.33,2.88,25.3,25.3,0,0,1-16.83-1,25.77,25.77,0,0,1-8-5.36,25.1,25.1,0,0,1-5.39-27.54,25.16,25.16,0,0,1,13.4-13.4,25.14,25.14,0,0,1,19.56,0,24.87,24.87,0,0,1,8,5.39,25.88,25.88,0,0,1,5.36,8,24.66,24.66,0,0,1,2,9.78ZM65.08,249.75a13,13,0,0,0,5.18-1.05,13.4,13.4,0,0,0,7.15-7.12,12.87,12.87,0,0,0,1-5.21,13.16,13.16,0,0,0-1-5.25,13.43,13.43,0,0,0-2.87-4.27A13.67,13.67,0,0,0,70.3,224a13.6,13.6,0,0,0-10.43,0,13.44,13.44,0,0,0-4.24,2.88,13.63,13.63,0,0,0-2.88,4.27,13.33,13.33,0,0,0-1,5.25,13.17,13.17,0,0,0,1,5.18,13.67,13.67,0,0,0,2.88,4.28,13.41,13.41,0,0,0,4.24,2.87A12.9,12.9,0,0,0,65.08,249.75Z" transform="translate(-39.92 -23.44)"/><path class="cls-2" d="M119.61,211.28a28.05,28.05,0,0,1,10.24,1.8,22.13,22.13,0,0,1,13.05,13,28.05,28.05,0,0,1,1.8,10.24,25.91,25.91,0,0,1-1.8,9.6,24.17,24.17,0,0,1-13.05,13.52,25.14,25.14,0,0,1-10.24,2.05,20.11,20.11,0,0,1-3.49-.29,14.88,14.88,0,0,1-3.16-.94,25.86,25.86,0,0,1-3.16-1.58c-1.08-.62-2.25-1.36-3.49-2.23v20.06H94.45V219.69H87.83l5-8.41h13.45v3.45a19.93,19.93,0,0,1,3.49-2,16.92,16.92,0,0,1,3.16-1,19.36,19.36,0,0,1,3.16-.4C117.2,211.31,118.36,211.28,119.61,211.28Zm0,38.54a13.34,13.34,0,0,0,5.64-1.15,13,13,0,0,0,4.21-3.06,13.81,13.81,0,0,0,2.66-4.31,13.6,13.6,0,0,0,.93-4.93q0-6.31-3.56-9.88t-9.88-3.56a13.27,13.27,0,0,0-4.89.93,13.56,13.56,0,0,0-4.24,2.66,13,13,0,0,0-3,4.24,13.31,13.31,0,0,0-1.15,5.61,11.3,11.3,0,0,0,1.15,4.93,15.74,15.74,0,0,0,3,4.31,15.19,15.19,0,0,0,4.24,3.06A11.17,11.17,0,0,0,119.61,249.82Z" transform="translate(-39.92 -23.44)"/><path class="cls-2" d="M148.51,211.42V199.71h11.72v11.71Zm0,50.12V215h11.72v46.52Z" transform="translate(-39.92 -23.44)"/><path class="cls-3" d="M214,241.4a25,25,0,0,1-8.59,14.42,25.9,25.9,0,0,1-7.37,4.24,25.17,25.17,0,0,1-18.48-.43,25.1,25.1,0,0,1-13.41-13.41,25.32,25.32,0,0,1,0-19.63,25.13,25.13,0,0,1,13.41-13.4,25.24,25.24,0,0,1,18.48-.44,26.17,26.17,0,0,1,7.37,4.25,24.89,24.89,0,0,1,5.5,6.36,24.64,24.64,0,0,1,3.09,8H201.79a13.46,13.46,0,0,0-4.86-6,12.91,12.91,0,0,0-7.58-2.34,13.33,13.33,0,0,0-5.25,1,13.56,13.56,0,0,0-4.28,2.88,13.41,13.41,0,0,0-2.87,4.24,12.9,12.9,0,0,0-1,5.21,13.16,13.16,0,0,0,1,5.25,13.32,13.32,0,0,0,7.15,7.15,13.16,13.16,0,0,0,5.25,1,12.91,12.91,0,0,0,7.58-2.34,13.4,13.4,0,0,0,4.86-6.08Z" transform="translate(-39.92 -23.44)"/><path class="cls-2" d="M217.37,261.54h11.72V239.1a14.52,14.52,0,0,1,2.59-.21,15.81,15.81,0,0,1,6.47,1.33,16.92,16.92,0,0,1,8.88,8.91,16.1,16.1,0,0,1,1.33,6.51,16.71,16.71,0,0,1-1.09,6h12.2a29.34,29.34,0,0,0,.61-6,27.75,27.75,0,0,0-1-7.37,28.88,28.88,0,0,0-2.73-6.65,28.14,28.14,0,0,0-4.24-5.64,31.79,31.79,0,0,0-5.5-4.5A30.36,30.36,0,0,0,257.56,208H245.85a18.5,18.5,0,0,1-1.3,6.91,19.61,19.61,0,0,1-3.56,5.78,19.34,19.34,0,0,1-5.32,4.21,18.3,18.3,0,0,1-6.58,2.08V199.56H217.37l-5,8.41h5Z" transform="translate(-39.92 -23.44)"/></svg>