<svg id="Layer_1" data-name="Layer 1" xmlns="http://www.w3.org/2000/svg" viewBox="0 0 220.16 253.7"><defs><style>.cls-1,.cls-2{fill:#fff;}.cls-1{opacity:0.3;}</style></defs><polygon class="cls-1" points="34.18 33 27.58 33 27.58 165 159.58 165 159.58 158.4 34.18 158.4 34.18 33"/><rect class="cls-1" x="159.58" y="151.8" width="6.6" height="6.6"/><rect class="cls-1" x="34.18" y="26.4" width="6.6" height="6.6"/><polygon class="cls-1" points="40.78 151.8 40.78 33 34.18 33 34.18 158.4 159.58 158.4 159.58 151.8 40.78 151.8"/><polygon class="cls-1" points="40.78 151.8 40.78 33 34.18 33 34.18 158.4 159.58 158.4 159.58 151.8 40.78 151.8"/><rect class="cls-1" x="40.78" y="19.8" width="6.6" height="6.6"/><rect class="cls-1" x="166.18" y="145.2" width="6.6" height="6.6"/><rect class="cls-1" x="40.78" y="26.4" width="6.6" height="6.6"/><rect class="cls-1" x="40.78" y="26.4" width="6.6" height="6.6"/><rect class="cls-1" x="159.58" y="145.2" width="6.6" height="6.6"/><rect class="cls-1" x="159.58" y="145.2" width="6.6" height="6.6"/><polygon class="cls-1" points="47.38 33 40.78 33 40.78 151.8 159.58 151.8 159.58 145.2 47.38 145.2 47.38 33"/><polygon class="cls-1" points="47.38 33 40.78 33 40.78 151.8 159.58 151.8 159.58 145.2 47.38 145.2 47.38 33"/><polygon class="cls-1" points="47.38 33 40.78 33 40.78 151.8 159.58 151.8 159.58 145.2 47.38 145.2 47.38 33"/><rect class="cls-1" x="47.38" y="13.2" width="6.6" height="6.6"/><rect class="cls-1" x="172.78" y="138.6" width="6.6" height="6.6"/><rect class="cls-1" x="47.38" y="19.8" width="6.6" height="6.6"/><rect class="cls-1" x="47.38" y="19.8" width="6.6" height="6.6"/><rect class="cls-1" x="166.18" y="138.6" width="6.6" height="6.6"/><rect class="cls-1" x="166.18" y="138.6" width="6.6" height="6.6"/><rect class="cls-1" x="159.58" y="138.6" width="6.6" height="6.6"/><rect class="cls-1" x="159.58" y="138.6" width="6.6" height="6.6"/><rect class="cls-1" x="159.58" y="138.6" width="6.6" height="6.6"/><rect class="cls-1" x="47.38" y="26.4" width="6.6" height="6.6"/><rect class="cls-1" x="47.38" y="26.4" width="6.6" height="6.6"/><rect class="cls-1" x="47.38" y="26.4" width="6.6" height="6.6"/><polygon class="cls-1" points="53.98 138.6 53.98 33 47.38 33 47.38 145.2 159.58 145.2 159.58 138.6 53.98 138.6"/><polygon class="cls-1" points="53.98 138.6 53.98 33 47.38 33 47.38 145.2 159.58 145.2 159.58 138.6 53.98 138.6"/><polygon class="cls-1" points="53.98 138.6 53.98 33 47.38 33 47.38 145.2 159.58 145.2 159.58 138.6 53.98 138.6"/><polygon class="cls-1" points="53.98 138.6 53.98 33 47.38 33 47.38 145.2 159.58 145.2 159.58 138.6 53.98 138.6"/><rect class="cls-1" x="53.98" y="6.6" width="6.6" height="6.6"/><rect class="cls-1" x="179.38" y="132" width="6.6" height="6.6"/><rect class="cls-1" x="172.78" y="132" width="6.6" height="6.6"/><rect class="cls-1" x="172.78" y="132" width="6.6" height="6.6"/><rect class="cls-1" x="53.98" y="13.2" width="6.6" height="6.6"/><rect class="cls-1" x="53.98" y="13.2" width="6.6" height="6.6"/><rect class="cls-1" x="53.98" y="19.8" width="6.6" height="6.6"/><rect class="cls-1" x="53.98" y="19.8" width="6.6" height="6.6"/><rect class="cls-1" x="53.98" y="19.8" width="6.6" height="6.6"/><rect class="cls-1" x="166.18" y="132" width="6.6" height="6.6"/><rect class="cls-1" x="166.18" y="132" width="6.6" height="6.6"/><rect class="cls-1" x="166.18" y="132" width="6.6" height="6.6"/><rect class="cls-1" x="159.58" y="132" width="6.6" height="6.6"/><rect class="cls-1" x="159.58" y="132" width="6.6" height="6.6"/><rect class="cls-1" x="159.58" y="132" width="6.6" height="6.6"/><rect class="cls-1" x="159.58" y="132" width="6.6" height="6.6"/><rect class="cls-1" x="53.98" y="26.4" width="6.6" height="6.6"/><rect class="cls-1" x="53.98" y="26.4" width="6.6" height="6.6"/><rect class="cls-1" x="53.98" y="26.4" width="6.6" height="6.6"/><rect class="cls-1" x="53.98" y="26.4" width="6.6" height="6.6"/><polygon class="cls-1" points="60.58 33 53.98 33 53.98 138.6 159.58 138.6 159.58 132 60.58 132 60.58 33"/><polygon class="cls-1" points="60.58 33 53.98 33 53.98 138.6 159.58 138.6 159.58 132 60.58 132 60.58 33"/><polygon class="cls-1" points="60.58 33 53.98 33 53.98 138.6 159.58 138.6 159.58 132 60.58 132 60.58 33"/><polygon class="cls-1" points="60.58 33 53.98 33 53.98 138.6 159.58 138.6 159.58 132 60.58 132 60.58 33"/><polygon class="cls-1" points="60.58 33 53.98 33 53.98 138.6 159.58 138.6 159.58 132 60.58 132 60.58 33"/><polygon class="cls-1" points="60.58 0 60.58 6.6 185.98 6.6 185.98 132 192.58 132 192.58 0 60.58 0"/><polygon class="cls-1" points="60.58 6.6 60.58 13.2 179.38 13.2 179.38 132 185.98 132 185.98 6.6 60.58 6.6"/><polygon class="cls-1" points="60.58 6.6 60.58 13.2 179.38 13.2 179.38 132 185.98 132 185.98 6.6 60.58 6.6"/><polygon class="cls-1" points="172.78 19.8 172.78 132 179.38 132 179.38 13.2 60.58 13.2 60.58 19.8 172.78 19.8"/><polygon class="cls-1" points="172.78 19.8 172.78 132 179.38 132 179.38 13.2 60.58 13.2 60.58 19.8 172.78 19.8"/><polygon class="cls-1" points="172.78 19.8 172.78 132 179.38 132 179.38 13.2 60.58 13.2 60.58 19.8 172.78 19.8"/><polygon class="cls-1" points="60.58 19.8 60.58 26.4 166.18 26.4 166.18 132 172.78 132 172.78 19.8 60.58 19.8"/><polygon class="cls-1" points="60.58 19.8 60.58 26.4 166.18 26.4 166.18 132 172.78 132 172.78 19.8 60.58 19.8"/><polygon class="cls-1" points="60.58 19.8 60.58 26.4 166.18 26.4 166.18 132 172.78 132 172.78 19.8 60.58 19.8"/><polygon class="cls-1" points="60.58 19.8 60.58 26.4 166.18 26.4 166.18 132 172.78 132 172.78 19.8 60.58 19.8"/><polygon class="cls-1" points="159.58 33 159.58 132 166.18 132 166.18 26.4 60.58 26.4 60.58 33 159.58 33"/><polygon class="cls-1" points="159.58 33 159.58 132 166.18 132 166.18 26.4 60.58 26.4 60.58 33 159.58 33"/><polygon class="cls-1" points="159.58 33 159.58 132 166.18 132 166.18 26.4 60.58 26.4 60.58 33 159.58 33"/><polygon class="cls-1" points="159.58 33 159.58 132 166.18 132 166.18 26.4 60.58 26.4 60.58 33 159.58 33"/><polygon class="cls-1" points="159.58 33 159.58 132 166.18 132 166.18 26.4 60.58 26.4 60.58 33 159.58 33"/><rect class="cls-2" x="60.58" y="33" width="99" height="99"/><path class="cls-2" d="M90.17,236.73v25H78.46v-3.88a25.16,25.16,0,0,1-6.33,2.88,25.3,25.3,0,0,1-16.83-1,25.77,25.77,0,0,1-8-5.36,25.1,25.1,0,0,1-5.39-27.54,25.16,25.16,0,0,1,13.4-13.4,25.07,25.07,0,0,1,27.54,5.39,25.77,25.77,0,0,1,5.36,8,24.66,24.66,0,0,1,2,9.78ZM65.08,250a13,13,0,0,0,5.18-1,13.4,13.4,0,0,0,7.15-7.12,12.87,12.87,0,0,0,1-5.21,13.16,13.16,0,0,0-1-5.25,13.32,13.32,0,0,0-2.87-4.27,13.5,13.5,0,0,0-4.24-2.88,13.6,13.6,0,0,0-10.43,0,13.28,13.28,0,0,0-4.24,2.88,13.51,13.51,0,0,0-2.88,4.27,13.33,13.33,0,0,0-1,5.25,13.17,13.17,0,0,0,1,5.18,13.67,13.67,0,0,0,2.88,4.28A13.41,13.41,0,0,0,59.87,249,12.89,12.89,0,0,0,65.08,250Z" transform="translate(-39.92 -23.15)"/><path class="cls-2" d="M119.61,211.57a28.05,28.05,0,0,1,10.24,1.8,22.13,22.13,0,0,1,13.05,13,28.05,28.05,0,0,1,1.8,10.24,25.91,25.91,0,0,1-1.8,9.6,24.17,24.17,0,0,1-13.05,13.52,25.14,25.14,0,0,1-10.24,2.05,20.11,20.11,0,0,1-3.49-.29,14.88,14.88,0,0,1-3.16-.94A27.37,27.37,0,0,1,109.8,259c-1.08-.62-2.25-1.36-3.49-2.23v20.06H94.45V220H87.83l5-8.41h13.45V215a19.93,19.93,0,0,1,3.49-2,16.92,16.92,0,0,1,3.16-1,19.36,19.36,0,0,1,3.16-.4C117.2,211.6,118.36,211.57,119.61,211.57Zm0,38.54a13.34,13.34,0,0,0,5.64-1.15,13,13,0,0,0,4.21-3.06,13.81,13.81,0,0,0,2.66-4.31,13.6,13.6,0,0,0,.93-4.93q0-6.33-3.56-9.88t-9.88-3.56a13.27,13.27,0,0,0-4.89.93,13.56,13.56,0,0,0-4.24,2.66,13,13,0,0,0-3,4.24,13.31,13.31,0,0,0-1.15,5.61,11.3,11.3,0,0,0,1.15,4.93,15.74,15.74,0,0,0,3,4.31,15.19,15.19,0,0,0,4.24,3.06A11.17,11.17,0,0,0,119.61,250.11Z" transform="translate(-39.92 -23.15)"/><path class="cls-2" d="M148.51,211.71V200h11.72v11.72Zm0,50.12V215.31h11.72v46.52Z" transform="translate(-39.92 -23.15)"/><path class="cls-2" d="M208,232c-1.56,0-3.12,0-4.68,0a1.84,1.84,0,0,1-2-1.13,13.25,13.25,0,1,0-12.41,19.26c5.75.17,9.88-2.4,12.55-7.41a1.57,1.57,0,0,1,1.57-1c3.36,0,6.71,0,10.07,0,1.1,0,1.28.43,1.06,1.4-2.1,9.44-10.83,17.41-20.5,18.88A25.36,25.36,0,1,1,214,230.27c.45,1.65.42,1.7-1.25,1.7Zm-40.25,4.91a22.89,22.89,0,0,0,0,2.87,22,22,0,0,0,26.83,18.63,21.45,21.45,0,0,0,15-12.22c.37-.77.28-1.07-.64-1-1.24,0-2.48.05-3.72,0a2,2,0,0,0-1.85,1c-3.91,5.46-9.18,8-15.93,7.21a16.57,16.57,0,1,1,14.45-27.51c1.44,3.19,4.21,3.1,7,2.87H209c.77.07,1-.23.59-.9-.15-.28-.25-.59-.4-.87a22.06,22.06,0,0,0-22.5-11.82A21.71,21.71,0,0,0,167.74,236.88Z" transform="translate(-39.92 -23.15)"/><path class="cls-2" d="M217.37,261.83h11.72V239.39a14.52,14.52,0,0,1,2.59-.21,15.81,15.81,0,0,1,6.47,1.33,16.92,16.92,0,0,1,8.88,8.91,16.1,16.1,0,0,1,1.33,6.51,16.71,16.71,0,0,1-1.09,6h12.2a29.34,29.34,0,0,0,.61-6,27.75,27.75,0,0,0-1-7.37,28.88,28.88,0,0,0-2.73-6.65,28.14,28.14,0,0,0-4.24-5.64,31.79,31.79,0,0,0-5.5-4.5,30.36,30.36,0,0,0,10.92-23.51H245.85a18.5,18.5,0,0,1-1.3,6.91A19.61,19.61,0,0,1,241,221a19.34,19.34,0,0,1-5.32,4.21,18.3,18.3,0,0,1-6.58,2.08V199.85H217.37l-5,8.41h5Z" transform="translate(-39.92 -23.15)"/></svg>